#!OML:ASF E:/inclinewalkrobotboard/Project1/Captureday1/Session1/subject1.ASF
:FULLY-SPECIFIED
:DEGREES
13
root 0 0 0 32.800787957519255 -45.57065250158377 -6.447609686095694
lowerback -15.511394957570328 3.3828784949637623 -5.76787168312295
upperback -9.948761674243176 4.761948845382637 -1.0998208930459423
thorax -2.4648360536423377 2.768427281385474 2.4640783437865936
lowerneck -11.91633516963792 3.689639954520418 4.839402160084814
upperneck 34.832444427912364 2.387825048775605 4.296322146122538
head 13.887742498955667 2.0187427954256307 1.1178072528542788
rclavicle -2.297863112927702E-15 -3.964871828314865E-15
rhumerus -40.998732654709244 20.769173603825884 -87.37653699897477
rradius 30.02928815219568
rwrist -22.842119940553317
rhand 21.909514184262743 2.2101039080205434
rfingers 7.125020000000016
rthumb 46.20135719782854 -19.929468585083573
lclavicle -7.530443224382634E-16 -6.3017671473088905E-15
lhumerus -84.44223837432783 -41.379078483621626 122.13032619700644
lradius 53.519298138451795
lwrist 32.03912613894768
lhand 24.141435622054946 20.870170626663143
lfingers 7.125020000000015
lthumb 48.2877682703179 41.835474247004186
rfemur -31.64630120645836 18.82556865255863 30.053568944533154
rtibia 37.10558431849235
rfoot 0.8163437568809186 -39.0317576654345
rtoes 27.234333577222266
lfemur -46.90926779145941 -1.1020588670173268 -30.69579887183645
ltibia 32.14461617530279
lfoot -54.0488166925957 28.44560526592262
ltoes 28.28865405823788
14
root 0 0 0 32.96522752744533 -45.564050947701276 -6.563197028988794
lowerback -15.602174673497935 3.408850355980524 -5.715526516837728
upperback -9.986559127994914 4.7922408309217035 -1.0627225955811626
thorax -2.453745037995188 2.779445916271025 2.477324934262633
lowerneck -11.893474966047755 3.651648604258707 4.82077606399482
upperneck 34.86871514665807 2.336129571145361 4.29182236922782
head 13.89351789910587 1.9942079604614664 1.114527844867935
rclavicle -2.178702127781016E-15 -4.126534681868357E-15
rhumerus -41.15440882541636 19.91676703443467 -86.13764904373387
rradius 29.918731865460202
rwrist -22.48382473782003
rhand 22.018760580140942 2.1296411579945165
rfingers 7.125020000000016
rthumb 46.308404033402184 -20.012864762361062
lclavicle -7.388085236469245E-16 -6.438885113678868E-15
lhumerus -84.19867267125498 -41.20710934176869 121.72710513920437
lradius 53.493949181472104
lwrist 31.88126607969741
lhand 24.210243246888624 20.888938675510204
lfingers 7.125020000000016
lthumb 48.35430514981765 41.854110831979824
rfemur -32.175471243327905 19.014211113563675 30.29283020458125
rtibia 37.26856292185676
rfoot 0.6116756493884026 -38.96027453474849
rtoes 27.384981654828273
lfemur -46.93511184217839 -1.0953653195180415 -30.646272953518967
ltibia 32.13174909793231
lfoot -54.158511719739884 28.462871803537354
ltoes 28.371891647239785
15
root 0 0 0 33.137642843641686 -45.5467224663755 -6.681593040086791
lowerback -15.69810425686741 3.4356631437255705 -5.662354422352043
upperback -10.026734602417207 4.823400385450718 -1.0235817457241163
thorax -2.44219740314733 2.7908491430924167 2.4924846375181176
lowerneck -11.868957272071713 3.611717468901264 4.801094245175677
upperneck 34.90612762974186 2.282194534675564 4.2864283147621975
head 13.899182710174195 1.9685173857415834 1.110869957996969
rclavicle -2.051684190955065E-15 -4.305380374780011E-15
rhumerus -41.29658373622346 18.917707626625365 -84.70494864623257
rradius 29.786039662874757
rwrist -22.064656891010557
rhand 22.153398232622855 2.0279785556065786
rfingers 7.125020000000015
rthumb 46.44014371295887 -20.11719903397501
lclavicle -7.255074520025255E-16 -6.574331058013755E-15
lhumerus -83.89503024439966 -40.994104964063794 121.28504742698611
lradius 53.449242143355264
lwrist 31.69788591549944
lhand 24.28610317092869 20.906546882757663
lfingers 7.125020000000016
lthumb 48.42775144107961 41.87276753895574
rfemur -32.723069609720056 19.223023947917866 30.54304679763173
rtibia 37.42884852972996
rfoot 0.4106317812208111 -38.896178664411195
rtoes 27.555895216680877
lfemur -46.96387131795342 -1.0895592269282197 -30.596205661616647
ltibia 32.119645401931834
lfoot -54.272153875495015 28.47938160508018
ltoes 28.456727042312885
16
root 0 0 0 33.328951358210574 -45.518686594909326 -6.810197750604738
lowerback -15.804986742147676 3.464887782011524 -5.604571587880967
upperback -10.071954579619222 4.857257439699085 -0.9795503450817704
thorax -2.42982593652473 2.8032764868293087 2.510731606317225
lowerneck -11.841408221990793 3.5673382103597433 4.779198924971957
upperneck 34.947106928195446 2.222713442988102 4.279409018409914
head 13.905124539210869 1.9400579210100255 1.1064649225633467
rclavicle -1.889093236573745E-15 -4.504623860263195E-15
rhumerus -41.450445532731315 17.67859176323637 -82.94669352993468
rradius 29.623077101726675
rwrist -21.547979235526014
rhand 22.316055836452957 1.9044112215347662
rfingers 7.125020000000015
rthumb 46.59938499472062 -20.244624360888704
lclavicle -6.949713865983417E-16 -6.715439513306707E-15
lhumerus -83.51671173023502 -40.726598675550065 120.76676341455398
lradius 53.38162039144845
lwrist 31.473169757051394
lhand 24.369605227878047 20.923255378388323
lfingers 7.125020000000016
lthumb 48.50876193754566 41.892496620576814
rfemur -33.31695643398277 19.457384095966617 30.817478357410636
rtibia 37.59656374408851
rfoot 0.19052260483634242 -38.82810499459884
rtoes 27.744392459320416
lfemur -46.992922883462285 -1.0833310392265538 -30.54231438932431
ltibia 32.10714187412815
lfoot -54.38701232860169 28.496933250433813
ltoes 28.543762270714197
17
root 0 0 0 33.65092469861758 -45.45384542308827 -7.020286234884156
lowerback -15.986254473713053 3.513978811898153 -5.50641046429486
upperback -10.151539123886963 4.914388077471365 -0.9018028082434153
thorax -2.4128214889833934 2.824853970280344 2.5451029630977624
lowerneck -11.79015453015672 3.4905696145550342 4.744282724494888
upperneck 35.02017530348085 2.120971132208131 4.262147254401251
head 13.915344092841206 1.890972574193034 1.0964818556940528
rclavicle -1.418060367962546E-15 -4.948504234440841E-15
rhumerus -41.80061292317954 14.526540604634732 -78.57916946805335
rradius 29.214244744216035
rwrist -20.210249622089513
rhand 22.647933087578803 1.6513403413318448
rfingers 7.125020000000015
rthumb 46.92602140284303 -20.517911765947474
lclavicle -5.447823903899862E-16 -7.0482307373539195E-15
lhumerus -82.69880508474492 -40.07257229350394 119.69158937765837
lradius 53.160500908124305
lwrist 30.917144690862266
lhand 24.490022415971 20.92889890825633
lfingers 7.125020000000017
lthumb 48.62657962989515 41.917235046953586
rfemur -34.658510531759134 19.996564376203793 31.439651195165084
rtibia 37.97439856455953
rfoot -0.2422592299277646 -38.759575381089036
rtoes 28.199174622652766
lfemur -47.04700642571053 -1.076379814028721 -30.440600417514737
ltibia 32.08121820180264
lfoot -54.55352897765245 28.526472810829816
ltoes 28.693450370903037
18
root 0 0 0 33.982908959695806 -45.36221919620415 -7.2332708124893905
lowerback -16.174285425432245 3.5619703522022 -5.412576413300383
upperback -10.231041219248345 4.969019894597455 -0.8240636453953005
thorax -2.390362860522031 2.844615470884923 2.5822333270910534
lowerneck -11.742072834756112 3.4139018258505267 4.7047726914330665
upperneck 35.0847135290051 2.0199511868052302 4.248290564829268
head 13.922958624200433 1.8422668113126912 1.088619530457181
rclavicle -1.1108373459037725E-15 -5.204658794113772E-15
rhumerus -42.15159584179699 11.862767631971394 -74.94013772193743
rradius 28.867331163518475
rwrist -19.11255213359484
rhand 22.936654579801083 1.4366715494321731
rfingers 7.125020000000015
rthumb 47.20964424995306 -20.747681474417572
lclavicle -4.606272479279722E-16 -7.158720384156929E-15
lhumerus -81.81583177361865 -39.44777371291163 118.61784286922888
lradius 52.96438383370966
lwrist 30.44090611219903
lhand 24.618695213087506 20.95031665762958
lfingers 7.125020000000018
lthumb 48.752856345217914 41.95588511422168
rfemur -35.54672587108139 20.366000759832062 31.881158091277356
rtibia 38.19962006652729
rfoot -0.6492396459062455 -38.58323840806994
rtoes 28.431790448726513
lfemur -47.061513783538146 -1.0605768666709388 -30.362682271588014
ltibia 32.06810247901177
lfoot -54.711826568671654 28.554974984963977
ltoes 28.80927937542183
19
root 0 0 0 34.38883799103489 -45.217807265699484 -7.486163215443584
lowerback -16.40840895705244 3.620944535799628 -5.298936943691107
upperback -10.331420538373841 5.03643733338207 -0.7265500121311352
thorax -2.364294462945991 2.8695867541974547 2.6311244147487294
lowerneck -11.678500938904035 3.317642567240652 4.656159396844686
upperneck 35.16650392475813 1.8944544385364666 4.227381156150438
head 13.932156854065232 1.7813383632161501 1.0773028146186654
rclavicle -5.70997270954845E-16 -5.6153986718164184E-15
rhumerus -42.58655581912449 8.114515787468132 -69.85221038165507
rradius 28.371114509666437
rwrist -17.530474789617998
rhand 23.304522359628535 1.1597646167613966
rfingers 7.125020000000015
rthumb 47.57197037847402 -21.049783487763985
lclavicle -2.551941191854565E-16 -7.423212791000158E-15
lhumerus -80.471270854446 -38.48186991722712 117.02476334661546
lradius 52.63752870601958
lwrist 29.679680791004117
lhand 24.808845481128355 20.977684207855745
lfingers 7.125020000000019
lthumb 48.939434810205974 42.01176427370709
rfemur -36.64826108637608 20.83502732193449 32.41810014439341
rtibia 38.46502640063674
rfoot -1.1393047508346754 -38.40809825203839
rtoes 28.75596538444736
lfemur -47.090849651862385 -1.0426813040878873 -30.253655404825263
ltibia 32.05043245849508
lfoot -54.8951047692929 28.58955072158498
ltoes 28.954673604095106
20
root 0 0 0 34.92220848198467 -44.96055041071471 -7.8043175356245165
lowerback -16.726805899788893 3.69881268475246 -5.153848378598543
upperback -10.468585258471988 5.125651465066373 -0.5948393937397114
thorax -2.3297163887513985 2.903520600775633 2.7019988739259517
lowerneck -11.586680661196613 3.1872425742247303 4.590390009314641
upperneck 35.27589208289352 1.7268242278475674 4.194789589274597
head 13.942912538510559 1.6992992793957202 1.0604459973506708
rclavicle 1.9828109822882212E-16 -6.13638293974186E-15
rhumerus -43.30156351715798 2.730320643607474 -62.61168516893955
rradius 27.617744389747205
rwrist -15.089543896922073
rhand 23.739772618620194 0.8260339945022466
rfingers 7.125020000000015
rthumb 48.002970808776254 -21.43041079011141
lclavicle 6.198960108580349E-17 -7.762925918419525E-15
lhumerus -78.18342527916143 -36.81818561680071 114.40805198412336
lradius 52.039907224144294
lwrist 28.37810445900366
lhand 25.098555439590683 21.01291499971455
lfingers 7.1250200000000214
lthumb 49.22508811274574 42.10314543359242
rfemur -38.1003807121663 21.471263823103598 33.13124776123851
rtibia 38.797658481972185
rfoot -1.7884366236039213 -38.182333236020725
rtoes 29.20314918669544
lfemur -47.12650191016358 -1.0201057175282582 -30.114211367405193
ltibia 32.03001756204418
lfoot -55.12496188802466 28.632671525732846
ltoes 29.13629356250612
